P3
56 56
255
128 33 37 124 35 35 128 37 35 127 36 36 133 39 38 134 41 39 131 39 41 132 40 41 135 42 45 135 44 44 134 43 43 135 42 43 135 41 43 139 43 49 140 43 46 136 47 46 136 43 45 129 40 43 122 35 39 135 42 47 144 52 56 149 56 57 148 53 59 140 47 52 128 36 43 128 37 43 137 44 52 139 46 54 143 51 53 147 55 57 146 55 60 141 49 56 138 47 54 142 51 59 146 51 57 135 41 49 131 38 44 142 48 58 150 58 63 144 49 57 144 49 56 157 64 69 157 61 68 149 51 57 143 48 58 152 59 63 159 60 67 145 48 59 145 48 57 155 58 62 154 59 65 153 58 61 151 55 61 154 59 58 156 61 63 154 59 59 
126 35 37 128 38 37 129 39 38 127 38 43 131 38 38 131 39 39 130 38 40 131 39 40 135 43 45 137 45 42 136 41 44 138 43 47 137 43 47 139 46 47 137 44 48 140 48 51 143 51 50 141 49 50 133 40 44 131 35 44 136 43 46 148 54 53 148 52 54 140 47 49 133 41 48 136 44 49 144 52 55 142 50 50 145 52 61 147 56 62 149 59 63 148 57 60 144 54 56 143 53 57 153 59 63 141 49 55 133 43 48 138 46 55 145 54 60 152 58 65 142 47 55 145 52 60 159 65 71 160 66 70 147 50 60 150 52 61 154 57 65 148 51 60 148 52 59 155 56 61 156 58 62 152 56 62 151 55 57 153 57 60 156 58 65 156 60 63 
128 37 33 131 37 37 133 41 38 132 42 42 134 42 44 134 42 44 134 44 44 132 39 41 131 38 43 135 43 44 136 43 44 135 42 47 139 42 46 143 46 46 137 43 48 135 43 47 139 48 47 146 54 52 146 54 56 138 55 63 139 64 74 152 87 100 161 90 102 137 48 54 134 42 48 139 47 52 143 51 55 143 53 55 147 56 59 150 57 62 149 57 61 148 60 59 150 60 59 148 58 59 152 60 61 151 57 64 145 51 59 138 45 52 146 51 55 155 60 67 148 53 58 139 44 52 144 51 61 161 68 76 159 65 72 155 58 65 152 55 64 152 53 61 148 51 59 152 55 65 152 54 63 153 56 60 152 55 61 152 56 61 156 59 61 158 59 62 
130 40 42 131 39 42 134 42 42 131 41 42 129 40 41 134 44 44 137 47 46 137 46 46 138 47 49 135 45 45 137 43 46 138 43 48 140 47 49 146 50 52 140 45 47 135 44 47 139 47 50 139 46 49 134 62 72 137 80 102 146 87 114 167 109 139 184 128 159 164 99 122 131 42 51 142 58 56 144 61 59 141 55 54 147 55 62 150 61 66 149 60 61 144 55 59 148 57 62 151 58 67 155 56 66 154 57 65 155 60 62 148 53 57 145 51 58 151 56 64 153 58 63 143 51 57 138 47 54 150 58 65 161 71 78 162 70 76 156 60 68 154 57 66 151 52 63 153 56 66 153 57 65 155 58 64 154 57 67 151 54 64 155 61 63 161 63 67 
129 40 43 133 42 46 134 42 42 130 39 40 128 39 39 132 42 41 138 46 48 139 47 49 140 49 48 138 45 48 138 44 50 134 44 48 140 48 51 145 50 52 139 48 48 141 50 52 144 48 52 134 49 58 124 59 77 118 50 71 110 45 63 153 89 117 188 116 154 184 116 157 144 78 80 166 121 70 175 138 80 168 127 74 167 119 71 185 143 79 189 150 83 176 127 73 179 128 74 175 120 78 167 96 76 155 68 68 151 56 67 152 56 64 151 55 61 148 56 60 152 59 65 151 59 64 140 48 57 141 49 58 154 59 63 166 72 76 163 69 75 157 61 68 155 55 68 153 55 63 154 56 62 155 59 66 154 58 66 153 56 64 162 63 69 159 61 65 
130 39 44 132 42 46 134 44 44 131 40 40 130 39 43 131 41 45 135 46 49 141 50 47 145 49 50 142 45 48 136 44 48 135 43 47 139 46 49 145 51 52 142 51 52 147 51 53 148 52 54 134 60 72 134 60 90 118 42 66 96 20 35 119 49 69 168 97 136 165 108 115 166 127 74 174 141 65 170 133 59 182 152 66 199 170 73 194 162 63 205 179 78 210 179 80 202 166 64 206 174 72 207 178 79 198 162 84 187 138 83 176 114 79 161 81 74 157 53 61 156 51 59 158 55 63 151 55 63 137 43 53 144 49 56 156 62 69 164 70 77 165 70 79 160 63 70 155 60 65 152 56 64 153 59 65 154 60 64 157 60 66 164 65 74 160 65 70 
134 42 50 132 41 46 134 44 41 135 43 47 130 38 44 130 40 42 134 45 43 138 48 46 142 50 47 141 45 51 138 43 48 137 41 45 138 44 46 143 50 50 144 51 53 149 55 59 145 54 55 134 60 78 145 67 101 126 51 72 111 37 52 120 56 49 146 93 67 154 108 42 162 122 41 170 129 48 167 121 50 177 140 61 196 166 75 191 158 79 192 156 70 198 167 71 199 166 67 208 175 76 214 181 70 220 189 75 224 198 87 218 196 89 195 155 91 147 110 109 134 116 119 144 100 108 164 70 76 152 40 51 140 38 51 146 52 65 152 55 67 161 66 77 167 71 83 164 69 78 157 59 67 154 58 67 152 57 66 158 61 71 162 66 72 163 68 72 
133 42 46 132 43 43 135 46 47 138 47 49 133 43 45 131 41 45 133 40 46 137 45 48 143 49 53 142 47 53 136 44 48 135 43 46 134 43 44 141 48 47 144 50 50 148 51 55 146 53 56 133 62 81 140 64 94 122 49 67 133 81 55 154 111 40 158 113 35 164 121 41 168 126 49 165 139 100 169 155 144 172 157 147 180 171 160 188 182 174 181 167 147 182 160 108 198 180 125 205 194 156 209 197 151 214 196 139 224 192 100 227 193 78 222 190 88 126 182 166 77 188 201 90 189 197 106 165 173 127 147 152 139 81 90 148 43 55 148 51 60 150 52 63 156 60 71 167 71 85 166 69 78 158 61 72 149 53 64 158 61 72 165 68 77 161 64 69 
130 39 46 128 42 44 131 41 46 135 42 49 139 45 49 138 43 50 137 42 48 140 43 46 140 46 53 139 47 54 135 44 50 135 42 45 132 39 46 139 45 49 144 49 54 151 54 59 143 56 58 133 63 84 132 58 83 109 39 54 144 93 42 164 125 45 166 128 49 162 125 62 158 130 100 164 158 162 165 159 164 165 157 160 170 166 171 183 182 188 185 183 186 187 183 181 196 195 199 200 205 216 205 208 221 208 213 226 213 211 194 221 195 116 229 194 81 183 188 130 55 146 159 32 116 125 43 129 140 74 191 204 109 199 210 135 95 104 152 50 57 151 57 67 153 56 63 164 66 78 167 72 79 162 67 76 149 54 65 152 59 67 167 70 80 166 69 75 
133 41 46 133 39 39 134 40 42 133 41 46 138 42 48 139 42 49 139 43 49 137 45 46 138 44 48 139 44 52 136 43 46 138 41 46 133 39 48 136 40 46 141 44 51 150 53 54 136 57 64 126 60 79 118 42 62 118 41 36 156 111 39 171 133 48 157 116 52 158 134 118 166 155 157 163 159 160 152 157 163 151 151 155 170 166 166 180 180 183 186 188 191 192 192 196 198 201 208 199 204 212 195 201 210 194 207 215 206 212 230 213 216 221 225 200 115 227 195 88 111 139 112 17 91 97 17 66 63 50 126 132 85 198 212 112 187 199 142 59 71 153 52 62 153 57 66 154 58 70 165 69 79 164 66 75 159 62 72 157 61 67 162 65 74 168 71 80 
130 40 42 132 40 40 133 39 43 132 39 43 137 41 46 140 43 53 140 45 46 141 46 47 139 43 50 140 44 52 138 44 48 136 40 46 135 38 44 135 40 43 135 39 40 144 48 50 124 49 59 108 42 57 137 50 50 143 79 31 168 132 48 165 128 47 152 120 90 157 146 145 173 167 167 138 155 163 67 109 126 112 120 129 158 157 159 175 175 180 185 186 190 192 195 201 198 204 214 199 209 220 149 218 237 125 219 242 178 208 219 215 224 244 216 214 191 233 202 88 167 161 95 31 101 101 23 84 77 40 95 89 64 160 166 97 212 226 132 122 136 152 46 58 147 49 63 147 46 59 162 64 73 163 66 74 163 66 73 161 64 74 162 65 74 166 69 78 
131 36 42 132 36 42 133 38 43 132 36 42 134 39 43 138 41 48 139 43 45 135 40 43 136 41 51 136 43 51 137 43 50 138 43 49 136 40 49 137 43 48 133 38 43 141 43 51 130 42 51 132 42 51 150 62 55 145 96 34 170 134 55 150 115 66 150 128 117 156 142 140 174 172 169 113 128 143 30 42 60 73 91 99 151 148 152 174 173 176 182 184 189 191 195 204 205 213 222 176 211 228 75 149 186 94 165 201 149 206 227 215 220 231 217 226 235 229 207 123 204 178 88 53 99 90 12 83 81 34 88 81 56 140 139 74 194 207 119 183 195 151 69 82 153 48 62 142 42 54 155 57 62 158 62 69 163 66 78 163 65 75 162 66 75 162 66 76 
128 37 41 134 40 46 133 41 45 134 40 45 134 42 45 139 44 46 142 46 48 135 43 47 135 43 48 138 42 48 134 40 44 136 43 48 135 41 48 134 38 43 133 38 43 135 40 45 140 41 44 151 50 56 143 64 47 159 118 49 154 129 92 145 117 105 150 128 119 161 148 148 175 174 178 110 113 127 25 32 49 42 85 99 138 133 134 179 178 184 178 184 194 187 196 208 206 218 230 162 189 209 57 95 127 101 169 199 159 188 201 214 217 229 223 237 254 225 217 176 234 202 87 119 113 91 23 90 91 30 93 90 59 127 126 64 167 182 102 208 220 147 115 126 157 47 59 144 46 58 153 52 65 157 59 71 162 64 77 162 63 73 161 64 73 162 62 72 
127 34 44 128 35 44 133 40 43 136 42 44 138 42 47 137 41 44 139 43 44 138 43 46 139 44 47 138 42 49 138 42 46 142 44 48 138 43 52 136 41 45 128 34 40 130 36 44 137 42 44 144 43 49 142 59 56 138 102 80 144 122 117 148 121 115 148 122 119 162 134 133 192 143 131 200 130 99 136 104 85 51 96 113 108 130 142 115 157 181 116 170 196 139 184 211 163 197 220 178 201 220 98 162 193 104 187 213 199 195 195 217 215 227 220 229 242 221 225 225 229 209 110 176 131 90 62 90 102 33 101 104 52 111 114 66 148 161 85 201 217 128 175 184 167 73 82 149 50 59 152 52 63 152 53 63 159 59 69 166 66 73 164 65 75 161 59 74 
127 37 43 125 35 44 130 34 43 131 38 42 132 40 41 132 41 44 135 43 46 137 42 42 139 43 46 138 42 49 135 41 44 140 39 46 141 43 50 142 44 45 139 42 47 125 29 39 125 25 38 131 49 50 129 82 71 133 100 95 141 114 109 145 119 116 158 111 98 198 109 75 227 112 69 245 129 72 117 130 129 19 143 178 21 145 188 17 159 207 29 180 227 32 175 226 45 193 243 77 196 241 80 193 235 174 183 177 227 196 188 221 219 234 226 225 238 223 230 246 213 204 152 194 141 85 127 78 93 43 112 119 41 108 119 71 124 136 69 180 195 111 197 213 170 91 102 167 66 74 157 60 71 150 50 61 156 54 66 164 62 71 166 65 74 161 61 72 
131 37 45 131 37 42 128 35 40 126 36 41 128 37 44 128 34 41 128 35 40 130 37 42 133 39 47 136 42 46 136 41 44 136 37 39 138 39 43 139 41 44 140 40 42 135 37 42 121 22 33 124 67 62 131 100 88 132 94 86 135 105 102 154 108 94 188 97 55 206 96 54 223 106 64 204 122 78 36 122 146 11 147 188 6 143 189 28 169 215 100 154 189 110 141 176 38 179 229 25 195 252 25 205 255 134 178 185 255 156 105 239 196 189 229 227 238 225 232 246 199 190 190 157 83 81 167 67 80 128 86 99 69 106 120 64 117 130 103 127 142 131 106 122 162 63 75 161 66 73 166 71 82 157 60 72 157 58 69 166 66 76 168 69 78 160 60 69 
134 38 42 133 35 43 131 39 45 130 38 42 132 36 44 130 37 44 127 37 42 129 34 43 129 35 42 132 38 46 138 40 46 137 40 44 133 37 43 138 39 45 139 42 42 137 41 46 129 33 44 128 78 74 134 105 96 132 98 88 133 97 92 166 84 52 196 94 53 200 90 52 225 109 64 132 102 86 6 122 160 15 147 189 11 154 198 67 148 184 187 98 116 231 130 146 117 139 173 21 188 243 29 204 255 62 196 239 228 152 111 255 158 96 238 201 190 225 229 244 203 196 174 167 100 94 161 63 76 169 67 76 161 71 85 157 85 100 171 75 90 160 55 67 152 54 63 151 57 63 157 61 71 163 66 75 160 65 75 167 68 79 170 72 79 165 64 75 
129 34 42 130 34 43 132 39 42 129 36 44 131 38 42 132 37 43 131 36 40 128 35 42 128 34 41 130 33 43 130 35 42 133 36 46 131 33 43 131 34 41 131 35 42 131 35 42 130 43 46 127 88 82 135 105 100 132 101 95 132 96 89 173 87 53 197 91 52 202 95 59 222 111 66 107 91 84 16 110 142 19 138 176 15 157 204 62 146 184 172 82 101 215 115 133 111 124 151 26 176 229 39 199 254 46 203 252 204 162 138 255 145 83 248 166 121 223 215 225 202 203 190 172 111 100 161 62 74 167 70 81 168 67 78 178 72 82 166 71 82 176 80 88 159 60 68 152 55 64 152 54 65 153 52 64 162 65 74 167 67 73 170 71 81 168 67 80 
128 32 43 127 33 40 125 36 40 127 33 39 130 36 37 130 35 40 131 33 40 128 34 38 128 30 39 129 33 41 128 34 40 129 33 40 130 34 44 129 33 39 128 33 43 131 34 39 131 52 49 131 96 89 139 109 106 133 102 98 131 100 92 175 98 70 201 94 52 201 93 57 223 113 66 134 95 75 37 107 136 28 135 169 12 143 186 21 166 214 94 138 171 107 126 155 41 151 192 42 180 227 41 194 244 47 200 250 205 148 123 255 145 83 252 153 92 227 198 186 204 203 219 161 85 100 162 62 72 164 68 77 167 71 80 169 71 84 159 65 77 173 80 89 171 73 82 161 63 72 158 63 71 149 54 65 155 57 74 168 69 81 172 69 83 174 69 83 
122 29 39 123 29 36 125 31 38 123 31 39 124 32 36 123 30 39 127 29 38 128 31 38 125 30 42 128 32 43 129 31 41 125 31 40 126 33 41 130 35 43 128 35 43 130 33 41 128 57 58 128 95 89 132 96 92 135 100 96 139 110 104 162 100 76 197 93 52 207 97 54 216 112 70 182 97 62 66 102 119 27 126 163 16 130 166 7 151 201 23 174 226 32 176 222 38 177 228 43 174 222 36 189 239 70 168 211 215 116 87 255 150 88 254 146 83 230 189 176 208 208 226 167 94 108 162 63 74 161 68 76 162 66 80 166 69 80 161 65 78 171 74 84 172 76 84 172 75 83 162 67 75 153 60 70 154 59 73 165 69 79 171 70 84 171 68 83 
116 26 37 119 25 35 122 27 35 123 29 38 123 30 38 119 28 37 121 27 37 123 26 39 123 28 39 123 28 37 123 25 36 121 26 36 117 26 36 118 29 38 119 28 40 114 26 38 133 89 90 152 135 135 155 139 139 153 135 136 145 118 118 145 117 113 165 110 92 198 107 66 199 97 58 210 105 56 121 101 92 43 115 148 37 123 154 17 150 192 25 149 190 38 147 189 47 173 216 41 173 217 49 158 203 153 109 103 235 112 69 251 133 81 254 135 77 224 192 185 211 214 233 169 93 109 159 59 71 164 62 71 168 67 81 163 67 79 156 57 71 162 65 77 167 71 82 172 74 85 174 77 87 164 67 78 160 65 76 165 69 80 172 71 79 169 68 80 
122 26 37 118 25 36 115 25 31 119 26 34 121 27 35 117 26 34 118 25 36 117 24 35 119 24 37 118 23 34 117 24 35 117 24 34 114 25 36 114 27 38 110 23 36 132 85 91 165 157 158 189 187 192 202 204 210 196 197 203 172 164 167 156 141 146 144 127 131 156 128 120 166 119 107 161 115 95 146 102 87 74 103 119 31 104 139 59 99 135 82 62 98 62 96 129 50 130 166 85 118 140 144 83 73 208 99 57 227 113 70 229 108 67 225 141 112 214 199 205 207 196 205 190 160 168 192 161 167 174 119 130 168 74 88 171 71 84 158 63 75 158 64 76 160 63 74 165 67 77 173 73 82 176 77 88 171 72 84 171 71 83 174 73 84 170 70 80 
124 29 33 122 27 36 117 28 35 115 23 32 118 24 33 116 23 32 116 24 34 114 23 33 116 22 35 116 23 32 114 22 35 114 21 34 111 24 36 108 18 31 130 74 80 160 148 148 166 157 160 188 185 190 206 210 220 210 181 205 205 193 207 181 180 185 147 139 142 153 141 144 152 142 149 140 130 137 129 122 127 114 111 119 56 107 130 34 94 131 70 81 114 64 111 142 97 112 132 136 95 92 161 91 73 183 101 75 188 109 83 172 112 104 183 145 145 190 157 156 185 158 159 198 197 202 210 218 224 215 228 234 198 182 191 174 92 106 162 65 76 161 69 80 167 71 82 165 68 77 166 66 73 171 71 79 172 73 82 175 73 86 175 74 86 171 72 80 
123 28 35 123 27 35 120 28 36 120 25 36 117 23 33 115 24 32 116 23 34 116 21 33 115 21 32 111 22 32 111 23 32 111 23 33 105 19 31 113 37 48 154 139 139 167 163 164 182 180 184 194 196 202 205 194 211 203 140 176 207 173 195 198 200 210 149 146 153 145 137 139 154 147 150 155 144 143 152 142 146 152 143 145 148 139 142 121 148 163 117 156 173 136 146 158 140 137 142 137 132 140 147 132 139 142 113 117 128 93 98 150 106 110 167 122 116 171 124 119 160 100 109 176 155 168 201 205 215 209 218 230 217 231 243 203 192 203 163 75 89 164 67 77 167 70 81 171 73 86 172 73 85 173 73 81 168 69 75 171 71 83 174 73 86 172 71 82 
119 27 36 121 26 32 120 27 32 121 26 35 117 24 33 114 24 33 115 22 33 114 22 32 113 22 33 113 22 34 110 20 32 108 22 33 99 14 28 127 81 85 156 151 151 169 166 168 189 189 196 205 197 214 209 153 191 209 128 169 208 167 191 198 203 217 152 153 163 143 138 142 149 143 150 143 142 150 133 145 159 84 138 165 88 140 166 88 140 167 86 142 172 95 141 166 140 143 156 158 147 151 147 133 139 128 103 107 132 101 102 150 112 110 156 120 115 152 104 108 143 68 90 153 103 123 186 185 188 199 200 211 209 219 231 220 237 251 183 139 154 160 60 72 169 72 83 166 67 76 171 72 79 174 73 81 173 71 80 170 69 80 170 72 80 171 70 79 
122 26 37 122 26 33 119 28 30 119 26 32 119 25 30 117 24 31 116 23 32 114 23 34 114 22 34 113 20 33 109 21 33 107 20 31 104 26 37 145 119 119 162 160 160 177 176 179 183 179 185 204 157 187 218 140 184 213 137 176 205 176 199 192 205 216 151 151 164 128 138 149 63 131 160 22 125 167 19 138 182 0 142 192 0 144 195 0 147 197 0 146 197 0 144 193 29 138 178 100 138 159 143 132 138 124 102 104 127 103 105 143 116 116 148 121 120 142 97 103 143 69 92 144 80 102 167 158 162 190 195 201 205 215 227 217 235 249 203 197 207 161 75 88 168 72 81 169 70 78 169 68 75 175 72 81 173 68 80 171 66 77 169 68 75 171 69 76 
121 27 35 120 26 35 118 27 34 120 24 35 118 25 32 117 26 32 116 25 34 116 23 34 114 23 34 113 20 33 110 22 33 104 18 29 114 46 51 154 145 143 168 167 170 177 178 183 194 150 176 208 136 174 208 141 177 206 144 179 196 185 200 189 197 212 87 138 165 24 125 161 2 126 175 1 135 184 2 136 186 4 144 194 4 149 201 4 149 200 3 148 198 4 148 198 1 146 198 0 132 178 67 120 140 126 107 111 122 101 105 135 118 121 145 126 129 140 97 106 140 73 93 142 71 95 154 102 122 185 178 185 202 214 222 216 232 249 209 213 226 164 90 104 163 65 73 169 70 79 167 66 73 170 68 78 174 70 81 171 67 78 167 66 78 170 69 75 
120 29 32 120 27 36 119 28 36 117 24 34 116 25 33 116 25 33 115 24 33 117 22 34 114 23 33 113 23 35 110 23 33 106 18 28 112 46 50 145 131 130 155 151 152 165 147 160 180 116 149 196 132 167 199 135 170 193 165 189 204 202 214 147 174 198 2 128 172 0 132 182 3 135 183 4 134 185 3 137 189 2 143 194 2 146 199 2 151 204 2 150 201 2 146 197 3 146 193 3 143 190 1 125 167 43 105 126 115 108 112 135 120 125 147 134 139 143 109 119 136 77 94 137 76 95 148 85 108 170 129 149 199 204 214 209 220 237 207 211 224 164 91 103 159 61 69 163 68 76 164 66 72 162 63 69 168 68 77 172 69 80 167 66 72 168 69 74 
119 27 35 120 26 36 120 29 32 116 26 33 115 26 33 117 25 33 116 25 32 115 23 32 111 24 34 111 22 32 108 21 32 105 18 31 102 30 38 135 106 104 165 165 167 165 144 163 170 110 141 183 126 159 185 150 176 193 189 203 175 180 197 50 134 168 0 127 170 6 133 180 3 134 183 2 134 182 2 140 188 3 146 194 2 151 201 2 146 194 2 147 197 2 145 194 2 141 187 3 142 186 4 134 179 0 121 164 91 129 149 149 134 137 146 134 142 148 132 138 141 105 117 137 81 101 145 85 111 160 104 130 188 179 193 209 225 241 202 195 207 164 72 83 164 67 74 160 69 72 160 68 70 161 67 69 163 66 71 168 68 75 169 69 73 164 66 75 
120 24 36 120 26 36 116 29 31 117 26 31 118 25 34 116 26 32 117 25 34 118 24 33 114 23 34 113 21 32 106 20 30 100 20 33 91 13 27 116 70 72 165 165 166 172 170 184 149 117 137 162 141 157 175 173 187 170 164 175 107 127 144 0 113 152 1 122 166 3 116 158 5 119 164 6 124 172 6 127 175 6 131 178 3 136 185 2 139 187 3 142 188 6 143 188 4 140 184 5 141 187 1 142 187 16 140 180 118 152 169 179 171 179 171 163 172 160 149 156 155 140 147 157 123 135 154 92 112 155 106 129 173 165 179 210 225 239 179 130 145 163 62 73 166 72 81 162 69 74 162 68 73 162 68 75 162 70 72 161 65 74 168 69 77 165 70 75 
119 27 35 118 26 32 118 27 31 118 25 30 118 25 30 117 24 33 116 24 33 114 25 34 113 24 34 112 22 32 107 22 32 103 21 33 98 19 32 90 15 27 114 71 80 136 115 118 137 120 122 147 145 148 136 133 140 119 111 118 115 108 114 68 111 128 15 119 151 0 123 169 1 120 167 0 119 171 0 124 180 0 139 193 1 145 197 3 146 195 1 141 190 0 138 187 1 136 185 0 129 175 30 127 163 122 150 169 163 164 171 166 164 172 182 179 189 199 196 206 187 179 188 166 106 118 163 63 71 160 81 91 164 112 127 171 130 143 156 65 79 159 64 74 163 68 78 161 70 74 163 69 76 161 66 70 165 70 76 163 68 74 166 70 76 166 68 72 
116 27 33 118 27 31 119 27 30 118 25 32 119 26 33 117 25 33 118 23 32 117 23 35 116 23 34 115 22 33 111 22 34 108 20 33 103 19 32 98 19 34 86 8 24 106 49 50 139 117 117 174 168 172 191 187 191 178 171 176 178 174 174 146 135 136 92 99 107 32 94 119 37 127 159 134 198 215 173 221 236 120 198 221 18 157 202 0 151 201 41 167 208 106 193 216 110 186 207 127 168 189 140 158 174 159 164 180 190 194 205 214 214 217 189 182 191 202 202 212 191 165 180 162 62 75 166 65 73 171 67 74 161 59 67 161 57 68 157 58 68 154 61 70 160 63 71 161 65 69 162 68 75 161 68 71 165 68 73 161 66 71 163 64 74 167 67 75 
117 23 35 118 24 35 117 26 30 118 25 32 119 25 34 117 26 33 121 25 31 123 24 31 121 23 34 115 22 33 115 21 32 111 20 29 102 19 28 96 19 30 92 17 29 95 27 34 117 80 77 209 205 204 255 255 255 229 226 227 246 246 246 249 249 250 139 141 147 124 124 131 240 242 242 239 236 235 175 198 204 237 245 245 208 235 239 0 123 159 97 157 176 255 255 255 231 227 228 240 236 235 255 255 255 196 198 206 201 202 209 255 255 255 204 199 210 190 172 188 152 74 92 150 49 61 167 60 66 176 70 76 171 71 76 168 67 73 160 61 70 155 57 65 157 57 63 159 63 67 163 68 72 164 67 74 165 68 74 162 65 73 164 64 70 163 65 68 
120 27 35 118 24 30 118 26 29 118 26 33 119 26 35 119 27 34 122 26 34 121 25 34 121 25 33 118 25 33 117 22 30 110 21 31 101 19 31 99 18 30 94 19 29 87 16 29 86 27 30 206 192 188 234 232 231 122 102 106 153 145 150 255 255 255 190 196 201 207 211 214 246 251 251 131 154 167 81 121 143 84 130 151 255 255 255 108 131 144 124 135 146 255 255 255 126 130 136 121 118 125 234 234 233 229 228 232 201 198 207 255 255 255 193 170 183 165 83 99 164 60 70 163 57 68 161 50 62 159 49 62 162 56 65 172 68 74 169 68 74 163 64 67 158 60 65 158 61 65 160 63 68 162 67 75 164 71 77 162 65 74 165 67 69 164 66 68 
121 28 36 118 24 33 117 25 33 117 26 33 120 27 34 121 26 34 122 26 35 121 25 34 124 24 34 122 25 32 120 25 34 116 23 32 110 21 30 105 20 31 97 19 30 94 21 34 70 0 14 189 166 169 250 251 250 178 166 168 208 203 206 255 255 255 194 195 198 235 234 235 226 232 236 162 180 193 165 183 198 119 132 150 224 229 231 194 190 194 168 164 172 255 255 255 191 187 190 187 182 185 251 251 250 222 222 227 204 203 210 255 255 255 198 179 193 161 61 75 174 73 81 179 73 82 175 69 80 168 62 69 155 46 59 152 43 57 159 51 62 164 61 67 167 65 69 168 68 71 166 68 73 163 67 74 167 69 76 165 65 73 164 65 68 166 67 71 
121 25 31 120 23 33 119 28 31 119 27 31 122 26 35 120 26 35 123 26 35 123 26 34 123 24 34 123 24 33 120 23 34 120 24 31 115 22 31 111 22 31 106 21 29 103 24 32 79 2 16 187 160 164 255 255 255 241 238 239 247 246 244 218 216 219 170 170 176 239 240 241 232 237 239 179 190 203 182 194 208 136 142 155 228 227 227 200 196 198 175 168 172 255 255 255 244 242 243 245 244 245 230 228 229 189 185 195 208 205 212 255 255 255 206 206 216 185 157 171 165 82 98 173 66 75 179 74 84 176 71 79 174 70 76 165 60 67 158 51 56 151 44 50 149 45 55 156 57 62 165 65 68 169 68 72 169 69 73 170 68 73 167 66 70 168 66 71 
122 25 34 120 25 34 123 28 32 121 27 33 121 27 34 121 27 33 123 25 34 123 27 32 123 25 32 123 24 31 119 24 30 118 24 34 114 23 33 111 22 31 110 20 29 109 23 31 81 1 13 193 166 169 239 240 238 144 129 128 167 162 164 176 175 179 174 172 178 220 222 224 254 255 255 195 201 211 169 178 191 172 172 180 255 255 255 154 144 147 178 171 173 255 255 255 165 157 159 156 146 149 160 148 152 158 150 158 193 188 194 255 255 255 196 194 205 202 207 220 196 179 193 165 75 92 172 68 78 175 72 81 176 72 77 175 69 75 171 66 70 165 60 65 158 55 62 159 58 63 159 58 62 165 65 67 168 66 69 168 65 68 168 65 69 168 65 69 
122 25 36 121 26 37 121 28 35 122 27 33 120 27 29 121 27 32 121 26 34 123 25 35 124 26 33 124 25 34 122 25 35 121 25 30 116 25 33 116 22 35 110 21 32 107 24 33 85 1 14 196 167 171 242 244 242 149 134 133 168 162 166 181 180 186 179 177 184 182 179 186 238 237 239 253 253 254 238 241 242 255 255 255 175 167 172 57 32 41 187 177 181 255 255 255 167 153 155 152 139 142 153 142 148 150 139 145 197 194 199 255 255 255 248 249 248 248 245 245 255 255 255 203 181 190 157 61 75 168 66 77 171 67 74 174 70 74 173 68 75 166 61 66 161 58 60 165 64 67 168 67 71 166 66 67 169 68 70 168 65 66 166 63 67 164 61 65 
122 27 35 121 28 37 121 30 32 123 28 35 122 29 34 122 26 35 121 26 34 123 25 35 121 24 37 123 26 35 123 26 32 123 26 34 118 25 33 114 22 33 109 21 28 105 22 31 86 11 23 121 73 76 165 149 143 150 139 138 167 160 165 177 176 182 178 177 185 175 173 182 184 185 195 208 212 221 212 217 223 197 203 211 73 55 70 38 4 18 139 120 126 181 168 171 152 137 142 146 131 137 152 143 147 164 157 163 190 187 193 209 210 218 216 217 228 219 217 227 219 216 224 209 206 218 169 104 120 157 54 61 163 63 71 168 66 70 172 67 70 171 66 68 164 61 65 160 60 64 168 68 69 168 65 69 164 61 66 165 63 64 163 61 65 162 62 67 
122 26 38 118 27 35 119 29 28 124 28 35 120 29 38 122 27 35 124 26 33 122 25 31 121 25 32 123 27 35 123 26 32 123 26 35 117 24 31 112 23 28 106 20 28 100 21 29 84 12 26 106 53 48 142 121 113 158 148 151 169 165 170 174 172 178 180 179 184 190 189 198 193 196 210 189 197 213 179 187 203 175 187 202 119 107 126 42 5 20 112 86 94 144 129 134 141 126 131 148 133 137 164 157 161 178 177 184 174 168 174 189 186 200 201 203 223 202 200 217 206 180 204 209 193 214 173 118 132 153 52 58 158 60 67 158 59 62 164 60 61 167 63 67 166 63 67 164 64 64 167 67 68 172 68 73 168 64 70 164 60 67 162 57 63 158 56 59 
121 27 35 121 27 36 122 29 32 121 28 34 123 28 36 123 28 32 120 27 34 122 27 33 121 26 31 121 24 32 122 24 31 120 25 31 117 23 33 113 23 31 106 20 30 98 20 29 86 12 26 112 55 47 148 123 114 160 154 158 176 174 179 190 188 192 176 174 179 184 185 193 192 196 210 196 202 215 204 210 220 192 203 214 151 149 167 51 13 31 88 57 66 149 132 138 154 138 143 152 138 141 171 163 170 177 172 181 180 172 176 192 184 195 199 204 219 205 189 210 213 143 185 181 117 139 159 66 78 160 62 66 155 57 65 159 59 64 162 59 61 165 59 64 161 59 65 161 63 65 165 65 65 168 67 66 169 68 69 167 64 68 164 62 66 159 56 58 
124 26 38 122 29 38 122 30 30 120 28 34 122 28 33 122 28 33 121 27 33 121 27 33 124 25 36 123 25 34 118 23 31 117 24 30 114 23 30 114 23 32 109 21 29 99 18 28 87 12 25 96 34 34 141 118 104 176 171 173 244 243 245 250 251 251 242 242 242 189 189 195 189 190 200 241 243 245 251 252 251 250 252 253 179 176 187 65 25 45 81 44 55 222 216 218 223 216 218 147 128 135 173 167 174 226 224 226 250 249 249 248 247 248 217 218 226 202 159 192 193 112 148 158 62 72 162 60 69 162 62 68 158 58 62 161 57 62 165 60 64 165 61 64 161 60 64 161 61 64 162 60 60 163 62 63 166 66 67 167 65 67 163 64 64 156 59 61 
122 27 36 121 27 34 123 29 32 120 26 33 120 27 34 122 28 35 121 27 31 117 27 31 119 26 34 123 26 31 118 26 31 118 25 30 115 23 24 109 17 28 103 17 27 99 23 28 92 21 22 99 34 30 130 98 81 211 206 202 241 245 247 172 175 183 240 239 239 223 223 225 210 209 213 253 255 255 189 186 200 236 231 235 218 216 220 95 64 80 217 209 211 255 255 255 222 218 220 133 103 116 185 166 175 255 255 255 179 171 179 201 194 199 249 247 250 187 127 156 159 66 83 161 60 69 159 60 64 160 58 68 159 58 64 159 56 62 159 55 61 163 60 63 164 61 65 167 64 66 162 58 59 160 57 61 162 61 64 163 62 65 165 66 70 156 61 66 
122 27 32 120 28 33 120 29 33 121 26 31 119 26 32 118 26 32 120 27 32 119 27 32 119 26 32 122 25 32 118 25 32 115 22 28 111 21 29 115 42 24 127 68 23 140 96 24 137 96 21 129 85 23 126 87 60 142 104 92 168 147 141 163 161 167 239 239 240 220 218 220 222 221 223 241 240 244 163 123 151 203 179 193 232 227 231 81 27 48 73 22 34 195 179 182 236 234 237 135 102 120 186 159 173 254 255 254 150 107 125 178 148 162 255 255 255 165 86 101 153 49 55 161 61 67 161 58 65 159 57 64 162 60 63 165 62 64 159 56 60 160 55 58 163 60 63 169 67 66 167 64 65 157 53 58 158 55 60 157 57 59 160 61 64 158 61 61 
124 30 36 121 29 34 119 30 33 120 28 35 121 28 29 119 26 28 120 25 31 118 24 29 117 23 28 117 23 29 115 23 30 109 19 26 128 68 23 149 113 27 157 125 33 167 137 39 170 142 41 160 126 35 138 102 30 72 55 29 98 76 79 240 235 235 251 254 254 171 161 170 225 223 226 227 209 217 105 46 66 174 152 160 236 230 230 92 23 36 75 1 18 198 177 181 228 219 221 135 93 106 152 106 120 236 225 226 237 229 235 234 222 226 252 254 252 170 87 90 153 48 51 165 63 65 163 59 63 162 58 64 161 57 62 165 62 63 164 59 62 162 59 61 161 59 60 166 64 63 170 67 69 166 63 65 158 56 62 159 58 58 158 58 57 156 58 55 
122 30 37 121 29 34 122 29 34 118 28 34 120 28 31 121 26 29 119 24 31 114 22 28 112 21 29 110 22 27 102 13 26 117 47 23 146 104 19 163 128 39 172 136 38 181 146 41 193 166 52 188 160 49 170 138 36 136 128 67 215 225 229 194 172 177 115 78 84 112 66 77 206 188 194 218 204 208 61 0 0 185 153 158 227 215 216 102 18 31 101 11 29 208 183 187 222 197 200 124 22 34 144 47 58 164 88 96 180 104 107 186 126 132 247 241 243 165 70 76 159 52 56 163 58 65 165 61 65 164 62 63 160 58 62 161 61 64 163 60 62 166 65 66 161 63 61 161 58 58 163 62 65 165 65 65 164 63 66 161 61 59 157 60 56 153 58 54 
122 29 35 120 28 34 120 29 31 122 28 32 118 27 32 115 25 33 116 24 29 114 24 26 110 21 32 101 16 28 100 24 21 140 93 17 152 111 15 161 122 27 174 142 41 195 168 55 199 170 51 200 170 52 185 154 40 229 213 171 255 255 255 191 176 178 200 184 187 165 119 126 148 82 94 255 255 255 182 146 155 243 242 242 188 139 145 118 19 31 126 21 34 218 190 191 228 207 208 135 21 28 168 81 86 249 245 244 200 152 153 232 212 214 221 189 189 152 40 49 164 58 66 162 55 62 162 57 60 163 60 61 159 56 57 161 57 59 160 58 61 163 63 63 165 64 61 161 61 61 159 60 61 160 61 64 164 64 65 166 65 63 161 63 63 154 59 58 
120 27 32 121 27 34 120 29 31 120 28 33 118 26 32 116 25 31 111 22 29 105 22 25 100 18 25 86 12 24 115 56 16 148 105 10 150 106 15 162 125 27 186 157 45 194 166 49 199 172 50 207 179 53 201 170 46 144 181 169 138 167 191 180 145 149 191 159 164 169 115 124 123 24 36 172 117 123 227 197 201 189 140 144 136 38 45 139 37 44 138 30 41 176 110 113 181 119 121 148 40 47 155 46 49 184 110 114 229 201 201 209 159 164 157 57 63 160 50 55 160 57 60 161 56 58 160 54 56 162 56 61 159 56 60 160 57 58 159 57 58 161 59 61 163 59 62 160 64 60 160 59 59 159 58 55 158 59 58 162 62 60 161 62 60 157 59 58 
120 28 34 119 29 33 122 27 34 122 27 36 118 26 32 115 24 30 109 22 27 98 20 24 93 16 23 79 13 20 121 68 12 148 107 12 148 106 15 167 135 34 185 155 42 192 164 45 201 175 52 202 176 55 140 157 91 5 137 176 34 74 113 94 5 15 103 14 23 118 23 30 138 40 47 131 23 32 129 20 29 132 22 30 142 36 42 143 38 42 144 41 47 143 31 35 148 34 42 155 51 55 160 55 55 156 43 49 152 39 43 152 36 42 158 48 55 155 51 55 158 55 51 159 53 54 157 52 58 157 51 56 159 54 56 163 60 62 161 58 60 160 56 60 160 54 58 158 59 59 158 59 59 157 58 52 160 60 58 160 61 63 161 60 59 155 57 54 
119 28 32 120 29 33 119 28 33 119 26 34 118 26 34 114 24 32 106 21 27 97 20 24 88 16 22 77 11 20 117 64 10 147 111 16 146 108 15 162 129 26 179 149 35 200 168 47 201 171 46 126 157 104 15 140 180 8 147 199 69 87 119 116 29 38 118 41 48 131 40 45 138 40 44 140 40 48 143 42 50 145 43 48 144 41 46 143 39 42 146 41 46 152 46 51 154 49 57 156 49 53 158 52 53 158 53 51 161 55 61 159 53 58 160 53 54 155 50 54 155 52 52 156 52 53 156 52 53 155 51 57 151 50 53 159 55 57 162 62 61 162 59 61 159 56 57 157 56 58 157 53 56 157 57 54 157 56 55 158 60 58 160 61 61 158 60 60 
120 29 34 118 27 34 119 29 31 119 27 32 118 26 34 112 23 32 107 21 27 98 18 26 85 16 24 75 12 19 115 58 9 136 96 4 145 110 17 153 115 13 143 127 43 108 141 93 89 139 107 27 144 176 10 144 197 15 143 192 88 58 82 118 29 38 117 36 43 128 37 43 139 42 45 139 37 42 144 38 45 144 39 44 146 42 44 146 43 48 147 41 50 151 46 46 153 49 49 154 48 54 155 48 53 154 48 51 156 51 55 156 47 49 158 50 51 156 50 55 155 49 55 154 49 54 154 52 51 155 53 55 149 49 55 151 48 51 156 54 57 164 60 62 161 57 58 155 57 59 155 55 54 154 53 50 152 54 51 154 55 53 157 59 58 159 61 57 
115 26 29 116 26 31 119 28 30 118 26 30 117 24 31 111 22 31 104 21 27 99 19 24 88 17 22 76 10 19 107 54 12 127 85 7 145 105 16 157 117 15 123 109 34 14 110 137 1 129 178 9 129 177 5 137 187 54 98 134 110 32 37 114 34 42 122 35 43 132 35 43 140 38 42 137 37 40 143 41 42 143 40 41 145 39 44 146 40 47 148 43 47 150 43 47 153 47 48 152 48 48 154 46 53 153 47 51 156 50 51 154 47 49 154 49 51 156 51 49 156 53 50 152 48 50 152 47 51 153 50 53 151 51 54 151 50 52 148 45 48 154 51 53 160 58 56 155 55 56 156 56 53 155 54 53 152 54 50 151 52 51 153 55 52 152 54 54 
120 27 29 117 26 29 117 26 29 116 25 31 114 24 30 109 23 28 103 22 26 100 19 24 94 18 26 82 14 23 90 30 19 105 53 12 89 66 18 88 83 43 71 87 56 35 81 81 17 122 151 8 134 181 39 103 138 97 40 51 115 30 34 117 31 41 128 34 41 136 37 40 137 38 37 139 38 40 145 40 43 144 40 43 146 42 45 145 42 46 148 41 44 150 43 45 150 44 46 153 47 48 150 47 49 151 45 47 155 46 51 149 47 46 155 48 47 154 48 48 154 49 51 151 49 54 151 49 49 152 47 47 153 50 50 154 53 53 153 51 51 148 45 46 153 51 51 157 54 53 153 52 55 151 55 54 155 54 49 152 54 53 156 59 51 153 56 52 
119 26 25 115 25 28 117 25 27 116 23 27 114 22 30 110 21 28 108 20 28 102 19 28 98 19 25 91 19 26 84 17 22 82 18 21 62 33 32 33 55 69 21 66 90 36 60 78 39 71 90 60 71 91 100 39 51 107 26 33 117 32 39 127 34 40 134 34 39 135 35 40 135 38 38 136 36 39 142 39 40 142 38 42 144 39 40 144 40 42 144 40 45 142 41 43 146 42 43 149 43 47 152 47 45 152 48 47 150 47 49 150 46 47 152 45 46 154 47 47 153 46 46 152 45 49 151 45 48 152 46 48 151 47 47 151 48 45 156 53 51 152 51 51 145 44 49 153 54 52 153 53 53 149 52 49 149 50 46 148 49 47 151 54 48 152 55 47 
117 25 28 114 24 28 115 26 23 117 25 24 114 23 27 112 21 30 110 22 30 106 22 28 103 21 25 102 20 27 99 19 27 93 19 24 92 20 22 87 23 25 86 28 32 91 25 33 101 26 34 111 28 36 120 31 38 125 34 38 129 35 37 130 35 36 136 39 37 137 38 37 139 37 37 138 36 39 143 39 41 139 38 43 142 37 42 142 36 40 142 39 43 141 38 43 142 37 38 145 41 40 148 42 41 150 43 45 151 45 45 150 45 46 148 43 44 152 47 45 151 48 46 153 46 44 152 47 48 148 42 42 149 44 43 151 47 44 153 49 46 152 52 48 152 50 49 149 47 44 153 51 45 151 52 45 149 50 45 147 47 45 148 50 45 147 50 42 
113 24 24 116 24 25 113 23 25 111 24 26 110 22 28 112 22 26 108 23 27 109 22 27 108 23 28 108 23 30 110 22 30 108 24 29 103 25 29 109 24 33 114 26 30 116 30 35 122 32 39 123 32 38 128 33 37 128 32 36 133 35 38 134 33 35 137 36 36 137 36 36 138 34 41 138 35 38 140 35 38 142 36 40 142 34 40 140 36 39 144 37 43 142 36 40 142 36 38 146 38 40 144 41 44 146 39 43 149 42 42 148 40 37 150 43 41 151 42 44 150 44 44 151 43 41 150 44 46 147 43 44 149 46 42 146 42 43 145 41 41 145 45 45 150 49 46 151 48 47 148 46 44 151 49 47 153 50 47 147 49 43 148 49 48 148 50 46 
