P3
10 10
255
130 40 41 136 43 45 139 46 47 138 57 73 153 75 66 161 85 55 155 67 55 154 52 63 157 55 62 154 59 64 
134 42 45 138 45 48 138 44 53 140 77 64 157 140 108 192 180 154 202 191 151 105 129 118 140 75 89 163 60 68 
132 39 43 137 43 47 131 34 42 151 87 65 132 122 116 84 163 207 180 210 222 137 145 128 114 95 110 168 57 66 
124 31 39 124 26 35 124 46 55 169 122 113 151 111 96 46 135 176 178 159 147 203 126 128 160 60 73 167 69 80 
120 28 36 106 12 23 149 106 115 189 175 199 65 133 162 36 131 169 119 100 105 178 158 169 181 123 135 168 59 68 
119 28 34 111 17 27 125 66 75 158 162 174 58 154 188 55 171 209 144 173 189 170 101 113 165 83 92 162 64 69 
121 27 34 123 25 33 104 16 30 185 171 175 208 206 210 183 168 170 215 208 213 185 111 123 160 48 53 166 68 72 
122 29 34 122 25 35 115 32 18 170 146 130 205 209 221 147 127 136 201 193 202 178 102 113 161 55 57 164 63 65 
119 26 34 106 25 21 159 139 34 139 147 118 158 89 103 160 77 81 179 98 102 160 56 58 160 57 59 159 60 59 
115 24 30 104 22 18 83 75 56 83 57 78 138 23 25 144 37 40 149 39 40 151 47 48 152 50 50 152 53 50 
