P3
20 20
255
128 37 37 131 40 40 132 40 41 135 42 44 138 43 46 139 46 47 135 45 47 148 63 68 139 48 55 135 39 51 144 48 61 142 48 60 141 44 57 141 47 55 147 55 62 152 61 68 151 55 63 151 53 61 153 57 61 154 58 61 
132 41 42 131 41 41 137 46 46 138 44 47 140 47 50 143 49 50 131 53 63 141 76 108 163 96 107 155 94 50 171 109 63 173 108 62 166 89 63 152 62 64 154 48 56 152 47 54 160 65 72 154 57 66 153 57 64 158 61 66 
133 43 46 133 42 45 137 45 47 140 46 50 137 44 47 148 56 57 130 54 81 129 67 52 165 123 58 179 156 104 190 176 122 199 181 112 221 199 122 209 174 91 117 132 135 126 100 112 152 55 65 163 66 76 156 60 69 161 64 72 
132 40 42 136 41 47 139 43 49 137 44 50 136 40 45 140 48 56 127 53 59 159 113 38 160 146 123 127 138 157 177 170 178 200 199 209 169 206 233 226 220 179 109 144 97 31 138 149 134 123 133 157 44 55 160 67 76 162 65 74 
130 37 43 135 40 44 139 44 46 137 43 48 137 42 47 132 34 44 144 64 49 148 124 94 169 144 144 93 92 94 124 157 170 164 203 223 115 167 193 214 228 238 190 171 115 27 95 95 88 177 189 155 66 78 157 55 65 163 65 75 
130 37 43 130 38 43 132 39 43 136 40 45 139 41 45 133 34 40 128 78 76 145 107 98 216 103 60 80 132 141 49 146 189 89 164 207 100 187 209 244 208 197 203 177 169 115 79 86 103 124 139 158 78 88 159 57 67 165 66 75 
128 34 41 129 36 40 129 33 40 129 34 42 131 34 42 130 35 40 124 90 87 155 93 71 215 92 44 46 118 139 53 144 185 90 151 190 52 186 226 253 164 113 196 159 162 162 51 63 175 68 79 163 63 72 156 60 71 169 69 81 
119 26 35 120 27 35 120 26 37 121 27 38 115 20 31 129 67 73 171 164 165 159 140 141 183 114 89 124 108 104 31 117 156 44 140 181 138 118 116 238 135 94 202 178 185 173 105 117 160 64 76 167 71 81 167 70 81 170 70 82 
121 27 34 117 24 33 115 23 33 111 19 30 110 32 43 164 161 161 211 185 208 199 174 193 146 147 152 122 136 148 83 129 154 117 129 145 160 110 103 154 110 108 167 126 134 207 221 230 185 136 148 164 60 71 174 74 83 172 71 82 
120 27 35 118 25 33 117 26 35 108 12 25 123 73 76 177 167 177 211 140 177 175 177 198 39 135 171 5 138 188 4 152 203 11 149 196 72 119 140 137 114 115 133 70 88 178 163 179 205 204 216 162 62 71 170 68 77 169 68 76 
119 27 34 117 26 32 116 25 34 108 17 29 107 43 51 151 130 142 174 146 162 83 133 155 0 113 162 5 136 187 2 143 194 0 141 190 29 131 169 160 160 168 160 129 140 162 112 131 183 145 159 160 62 69 162 69 73 166 68 75 
118 26 32 118 26 32 119 24 33 116 24 34 97 11 25 101 46 52 190 186 184 178 176 180 129 160 173 143 193 210 80 168 196 144 187 201 192 199 207 213 210 218 173 106 119 164 57 65 160 60 69 160 63 69 163 68 74 163 66 72 
119 25 33 119 26 33 123 26 34 122 24 33 112 22 32 94 15 26 198 180 182 220 218 219 224 224 227 172 182 192 197 195 198 217 209 210 217 213 215 219 212 219 171 83 96 171 59 69 163 58 65 159 58 63 166 67 72 167 66 71 
121 27 35 121 28 33 122 26 34 123 25 34 119 25 33 104 19 28 166 141 141 165 163 167 197 198 206 208 212 219 132 118 126 172 161 164 153 143 149 220 224 230 216 208 218 167 75 85 169 64 67 163 61 65 167 65 68 166 62 66 
121 28 34 122 28 34 121 26 33 122 26 33 117 23 33 89 2 19 125 89 90 203 205 208 195 195 203 210 218 229 106 85 99 154 137 142 182 177 181 208 206 218 195 147 173 158 65 72 161 57 61 164 63 66 166 65 67 163 61 65 
122 28 34 120 27 32 120 27 32 118 21 31 118 37 28 129 75 24 128 92 54 192 186 186 223 222 225 205 187 197 152 121 131 181 160 167 195 175 183 222 206 213 167 74 84 158 52 57 162 59 63 164 61 63 162 60 62 159 60 62 
121 29 34 120 28 32 114 22 29 106 24 24 146 103 23 195 166 42 192 163 55 181 173 173 170 129 138 188 153 160 147 76 85 171 107 114 179 110 116 211 169 172 162 59 63 162 57 60 162 60 61 162 62 61 163 62 63 159 60 58 
120 28 33 120 28 33 99 15 27 99 40 16 160 123 16 192 160 44 100 170 139 82 81 111 139 35 38 150 56 63 145 40 45 153 48 53 163 60 63 162 59 64 156 49 52 156 53 56 159 56 59 160 58 59 157 57 55 159 61 59 
118 27 30 117 25 31 99 17 27 90 27 18 120 85 14 53 112 102 17 112 160 106 36 47 134 34 37 140 36 39 146 41 45 150 45 47 152 46 49 153 46 47 154 50 51 151 49 51 153 51 52 156 54 55 153 54 52 153 56 52 
116 25 26 113 23 27 107 22 28 100 19 26 81 24 32 75 39 53 111 35 42 133 32 34 137 37 39 141 38 40 142 38 42 143 39 41 148 43 44 150 45 45 152 45 45 150 45 45 150 47 45 150 49 48 150 50 47 148 50 46 
