P3
14 14
255
129 38 38 133 41 42 136 43 45 139 45 47 136 49 53 148 67 86 141 52 53 150 61 55 145 52 56 142 42 55 154 49 55 154 58 65 151 54 62 155 58 62 
132 42 44 135 44 46 138 45 49 144 50 50 131 53 72 145 85 77 175 135 83 184 154 95 202 160 93 178 127 86 130 86 98 157 60 69 158 61 70 157 61 69 
133 40 44 139 43 48 137 43 48 137 42 51 136 58 52 157 128 73 136 138 142 183 178 179 186 209 220 205 212 171 65 141 120 106 119 134 163 54 64 161 67 76 
131 37 43 135 41 44 138 43 48 136 35 43 132 66 59 174 124 104 117 114 114 91 159 190 113 181 214 219 214 212 133 127 107 80 132 148 161 68 78 162 60 70 
128 34 41 128 34 40 131 35 43 131 29 36 120 83 84 190 94 58 105 113 108 40 141 190 69 168 205 230 183 153 180 106 116 158 56 68 160 67 76 165 65 77 
120 26 34 119 26 36 114 17 29 124 57 64 181 171 179 183 147 145 144 118 111 61 125 159 129 121 126 203 127 106 191 166 176 173 95 106 167 65 76 172 72 84 
120 27 34 117 25 34 106 13 24 146 123 128 215 170 199 133 159 186 28 134 174 27 146 191 70 126 149 128 94 99 165 139 154 198 190 202 165 60 69 171 70 79 
118 27 33 118 26 34 107 17 28 119 71 80 174 153 163 65 131 157 16 141 186 12 152 200 47 151 186 165 164 173 162 104 118 172 111 124 161 66 71 164 68 74 
118 26 32 121 26 34 120 25 34 92 8 18 180 159 160 217 214 215 180 194 202 177 195 202 222 217 218 212 195 203 168 65 75 162 51 58 161 64 69 166 67 73 
121 27 34 122 27 34 125 28 35 105 11 23 148 113 119 192 195 199 199 201 210 152 134 139 167 157 160 212 215 224 189 132 145 163 54 59 166 65 68 167 64 68 
121 28 34 121 28 33 121 24 34 106 23 21 124 84 70 210 212 214 206 206 216 139 119 130 184 176 181 210 195 207 168 79 93 159 56 59 165 63 65 161 61 64 
122 30 34 115 23 31 110 33 24 174 130 24 185 162 67 172 156 165 183 139 146 159 96 104 182 123 129 198 139 143 159 50 53 163 61 63 162 61 62 160 60 60 
121 29 33 104 17 31 104 45 12 150 137 38 74 149 144 103 45 64 145 38 40 146 41 45 156 48 51 158 51 54 155 50 53 157 54 57 157 56 56 156 58 56 
116 25 27 108 21 29 99 22 20 70 50 50 73 52 77 133 32 34 140 37 40 144 39 43 147 43 44 151 45 45 151 46 47 150 47 47 151 51 49 150 51 47 
