P3
40 40
255
126 34 37 126 37 36 127 37 38 133 39 38 131 39 40 132 40 42 136 44 44 135 43 43 136 42 44 138 43 47 139 45 47 139 47 47 131 41 44 126 36 41 140 46 50 149 52 53 143 48 53 130 38 45 134 42 48 141 48 53 144 52 56 148 57 61 143 52 57 140 50 56 147 53 60 134 42 48 136 43 51 148 56 63 144 49 57 151 58 64 158 62 68 146 49 57 151 56 63 153 55 64 145 48 57 156 58 63 153 58 63 152 55 59 155 59 61 155 60 62 
128 37 35 131 39 37 130 40 42 133 40 42 132 41 42 131 39 41 135 42 43 136 43 44 137 42 47 141 45 46 137 44 48 139 48 49 145 53 51 139 46 51 136 52 59 152 74 80 144 57 61 133 40 45 140 46 52 143 50 53 147 53 60 148 55 62 148 58 60 146 56 57 152 59 61 147 54 60 137 46 52 146 53 59 152 57 64 140 46 54 154 61 69 158 64 71 152 54 63 152 54 63 149 52 59 153 55 63 153 56 61 151 55 59 154 57 62 157 59 63 
130 40 41 133 41 41 131 41 41 131 42 42 137 46 46 137 46 47 136 45 46 137 43 46 138 44 48 145 49 51 138 45 48 137 45 48 139 48 51 134 67 80 140 81 105 172 115 144 175 111 139 136 50 60 146 67 59 145 65 60 149 63 64 154 70 67 147 63 61 151 64 67 152 56 67 152 53 65 148 51 58 146 51 58 152 60 65 145 53 59 140 48 56 158 67 74 163 70 75 155 58 66 152 53 63 152 55 65 154 57 64 154 56 66 153 57 63 160 62 65 
130 40 44 134 43 45 130 39 40 129 40 40 136 45 47 141 49 49 141 47 48 137 44 49 136 45 48 144 50 52 141 50 51 146 50 52 135 55 65 123 54 79 104 34 51 149 79 110 184 115 158 158 106 88 172 137 68 175 141 72 183 145 70 197 164 78 194 155 78 190 146 72 185 136 78 169 101 76 160 78 72 153 60 64 154 49 56 156 53 59 141 48 56 143 51 57 163 69 74 164 70 76 158 60 69 153 55 62 154 58 65 154 59 65 158 61 68 161 63 69 
133 41 48 133 43 43 134 42 44 130 39 43 133 44 44 140 49 47 143 47 49 138 43 48 137 42 45 142 49 49 146 52 54 147 53 54 138 62 79 137 60 91 108 33 48 124 60 59 155 103 71 165 127 47 169 128 51 177 139 61 197 169 77 194 161 74 202 170 69 205 172 68 215 185 72 218 190 77 215 186 86 185 137 89 141 97 103 147 97 104 160 63 71 143 34 45 147 50 62 158 63 74 165 70 80 160 65 73 154 57 65 153 58 66 161 63 72 163 67 72 
131 42 45 132 44 45 137 46 49 134 43 46 133 40 46 139 45 49 142 48 54 136 44 49 134 42 44 138 46 47 146 51 53 147 53 55 138 63 82 129 55 84 129 72 53 157 116 41 162 119 35 163 125 59 166 148 130 170 156 148 180 173 166 184 175 166 183 165 127 200 189 155 207 199 172 215 200 154 228 197 92 219 192 89 103 183 180 69 172 185 100 163 172 127 135 144 145 53 63 149 50 60 154 59 70 168 71 83 162 65 75 149 53 65 161 64 75 164 67 73 
131 40 44 131 40 42 134 41 47 139 43 50 139 43 49 138 44 47 139 45 52 137 43 48 134 40 46 135 40 48 146 48 53 145 57 59 130 62 81 114 37 59 141 87 39 170 132 44 159 124 74 162 145 139 165 163 170 159 157 162 172 169 173 184 186 191 190 191 196 198 202 213 202 206 220 205 212 229 212 209 200 233 201 103 163 173 115 23 98 109 28 102 106 79 199 212 124 148 159 151 46 56 152 57 65 160 64 75 166 70 79 154 59 69 158 62 70 168 70 79 
131 39 42 133 38 41 132 39 43 138 41 49 140 44 48 139 44 47 139 43 52 138 44 49 136 39 46 134 39 44 139 41 44 134 50 56 115 44 60 136 55 42 161 118 38 162 126 54 153 131 122 173 168 170 108 133 144 98 113 124 164 163 164 180 182 185 191 195 201 202 207 216 157 211 229 136 208 226 202 218 242 222 216 183 218 188 84 58 110 98 17 73 69 55 133 134 96 205 219 143 86 99 150 43 56 150 52 64 164 67 74 163 66 73 161 64 73 165 68 77 
131 37 42 133 39 44 132 38 43 136 41 45 140 44 47 135 41 46 136 42 50 136 42 48 136 42 48 135 40 46 135 39 45 136 41 48 141 44 54 150 82 43 161 129 58 148 118 92 154 138 135 170 173 177 59 74 95 41 63 76 157 153 155 186 183 187 196 197 205 202 218 229 85 139 172 95 165 197 192 213 226 223 229 236 235 208 115 112 125 86 11 79 82 49 112 107 72 190 202 131 155 167 155 44 57 145 46 57 157 59 68 162 65 77 162 65 75 162 65 74 
127 35 43 132 39 44 136 42 45 137 42 46 139 44 45 138 44 47 138 43 48 137 42 46 139 44 50 136 41 46 130 36 42 135 39 43 146 43 49 142 80 59 146 123 105 145 120 117 155 132 130 190 150 141 153 106 88 58 88 98 113 139 152 129 171 193 146 189 213 181 205 224 107 156 184 122 180 200 211 208 214 220 230 251 231 223 168 185 150 84 44 90 102 41 106 106 68 155 167 104 200 214 159 90 99 151 46 56 152 53 65 159 59 70 164 65 73 162 61 74 
127 37 44 128 34 42 130 37 42 131 39 42 133 40 44 136 42 43 138 43 48 136 41 44 140 40 46 142 44 47 136 39 44 124 24 36 128 52 51 130 91 83 137 110 108 149 116 109 183 105 76 236 112 63 194 131 94 29 140 172 14 147 193 30 172 219 41 172 220 50 195 245 70 199 244 184 180 170 236 203 200 224 229 249 218 224 218 192 139 96 121 82 95 43 110 120 57 126 138 86 184 200 158 110 122 168 62 70 154 57 69 155 54 65 167 66 74 162 62 73 
134 37 43 131 37 43 128 37 42 130 36 44 127 36 41 129 35 43 132 39 46 137 41 45 135 38 41 137 39 44 140 42 44 130 30 40 126 72 68 133 103 92 132 98 92 168 94 65 201 92 49 225 105 60 95 113 113 0 141 186 12 156 201 118 135 165 184 128 151 52 171 219 10 207 255 130 176 183 255 157 105 234 214 215 217 225 231 169 112 107 166 61 73 138 81 94 119 99 113 148 84 98 153 56 67 157 62 69 162 66 77 160 63 73 169 70 79 165 65 74 
130 34 42 131 37 43 130 38 42 132 38 42 131 37 42 128 34 41 129 33 42 132 36 43 132 35 45 131 34 41 131 36 43 131 38 43 130 86 81 135 108 103 131 96 88 178 88 53 202 94 57 211 105 63 63 98 109 12 133 173 18 161 206 131 109 135 210 102 118 70 147 184 23 200 255 83 194 228 252 145 88 249 170 130 216 220 221 177 130 119 161 61 72 173 68 78 179 69 81 173 72 82 163 64 72 151 54 63 153 54 66 161 63 73 169 70 78 170 68 81 
126 31 40 125 33 39 126 33 38 127 34 38 129 32 39 128 32 38 128 32 42 129 33 40 128 33 42 130 35 42 130 33 42 130 42 44 129 90 83 133 100 97 133 102 95 178 97 66 206 93 51 218 109 63 107 97 93 24 125 161 9 145 188 40 162 208 65 152 190 39 168 214 33 195 248 87 175 210 251 138 84 252 154 94 220 209 211 172 119 137 160 58 67 164 72 81 164 69 81 164 72 83 174 78 87 165 68 76 152 58 68 153 58 72 170 70 82 173 69 84 
117 26 36 122 26 35 123 30 38 121 30 37 122 27 37 124 28 39 124 29 40 124 27 37 120 27 37 122 32 40 119 24 35 125 57 63 146 125 123 150 128 128 144 119 118 151 109 99 189 105 70 210 102 58 172 101 68 49 112 139 26 130 167 19 154 199 34 160 204 42 176 223 42 166 212 157 117 113 253 123 69 251 143 88 222 213 219 179 126 145 157 53 64 164 61 73 163 66 79 159 62 75 167 71 81 173 75 86 166 70 80 158 64 75 168 70 80 170 69 81 
122 27 36 116 25 34 118 25 33 119 26 34 117 25 35 117 24 35 118 23 35 117 23 34 116 25 36 111 21 33 118 44 54 153 135 136 189 188 192 205 206 214 186 178 185 154 144 149 150 130 128 162 125 117 153 112 98 94 102 111 30 104 140 64 72 109 59 93 128 70 123 151 138 87 80 212 100 57 221 110 72 214 145 126 207 195 202 196 177 183 194 169 176 179 119 130 168 68 81 158 64 75 161 65 77 166 67 76 174 74 83 172 73 85 173 73 84 171 71 81 
124 28 34 121 28 36 117 24 34 116 23 32 116 23 33 115 22 33 114 22 32 112 23 33 110 21 33 109 25 37 149 124 126 172 169 171 191 194 199 206 182 204 210 175 199 182 184 190 143 137 140 154 146 151 148 138 143 145 131 133 108 125 138 91 126 151 113 132 150 133 120 126 151 114 111 156 106 98 151 103 101 171 132 131 174 126 125 181 162 171 210 223 232 216 231 241 189 146 159 160 62 74 167 71 82 169 71 82 171 70 79 171 71 79 174 73 86 172 72 83 
120 26 35 121 27 31 120 26 34 116 24 32 115 23 33 114 21 32 113 22 33 111 23 33 102 14 26 119 63 70 160 157 156 180 181 185 203 192 210 210 138 179 209 158 186 187 193 205 148 141 145 143 141 147 130 142 154 93 143 167 87 142 168 83 148 178 93 144 169 143 145 155 153 140 146 124 102 108 140 106 106 157 120 114 148 85 97 150 94 115 187 188 193 207 215 228 216 230 243 171 100 114 165 63 74 169 71 80 174 73 81 172 70 79 170 70 80 171 71 79 
121 26 36 119 27 32 119 26 32 119 25 31 116 24 32 115 23 34 114 21 33 110 21 33 103 18 28 139 108 109 170 173 174 184 175 184 206 148 181 215 135 177 205 171 195 180 191 203 103 133 152 34 128 165 5 131 179 2 142 192 0 147 200 1 147 199 0 145 197 24 139 181 104 127 141 131 103 103 133 111 113 146 122 122 141 84 98 142 71 95 167 146 155 198 207 215 218 239 253 187 154 167 162 62 72 169 71 78 171 69 78 174 69 81 169 66 76 170 69 76 
120 28 34 119 27 36 117 24 34 116 25 33 116 25 33 116 23 34 114 23 34 110 21 32 106 23 31 140 115 115 161 161 163 177 134 159 199 127 164 197 143 176 208 195 209 124 168 193 0 126 172 2 134 184 2 136 188 4 143 194 4 149 201 4 150 202 4 148 198 0 145 195 8 126 167 76 104 118 129 112 116 144 129 134 140 94 107 136 69 90 152 93 115 190 180 192 214 232 247 190 164 178 156 58 68 165 69 76 164 65 71 169 68 77 170 68 77 167 67 74 
120 26 36 119 28 34 116 27 32 116 26 33 117 25 32 115 23 33 112 23 33 109 21 32 99 15 27 123 83 83 169 173 177 165 126 152 176 126 156 192 175 195 165 175 191 24 128 167 0 127 173 8 131 177 6 134 181 7 141 188 3 146 195 2 145 193 6 145 192 8 143 186 0 139 186 15 127 165 141 141 150 155 142 149 145 124 131 141 97 112 148 87 114 173 147 166 212 233 247 183 133 146 161 59 68 161 70 73 161 67 71 162 67 71 168 68 74 166 68 75 
119 26 35 118 27 32 118 26 31 117 25 32 116 25 33 115 24 34 113 22 33 107 21 32 97 17 30 97 29 39 142 123 128 146 131 139 147 139 147 144 140 149 106 108 118 22 109 138 0 122 164 0 115 163 0 116 170 0 126 181 2 139 190 2 142 190 0 136 184 0 131 179 7 129 172 92 149 173 165 164 173 180 174 183 181 178 185 167 130 140 158 75 89 162 119 135 183 161 176 162 73 86 164 67 77 162 70 75 162 68 74 163 69 74 164 68 76 166 70 75 
117 26 33 119 27 31 119 25 31 118 25 33 118 24 32 117 23 34 115 23 33 111 22 34 107 21 33 96 15 29 89 16 28 124 89 87 175 172 174 189 186 190 189 182 183 143 138 140 46 92 112 61 142 172 151 209 227 137 209 230 21 159 203 12 155 200 109 194 218 125 190 212 143 170 187 169 169 182 206 206 211 198 196 204 199 194 208 166 84 98 168 61 66 167 68 75 158 59 70 154 57 67 158 62 70 162 67 71 162 68 73 164 68 72 162 66 73 165 66 74 
118 24 35 118 25 30 118 25 32 118 26 35 120 26 32 122 24 32 118 24 33 115 22 31 106 20 30 98 20 31 91 16 28 92 35 37 208 199 196 222 217 219 199 193 195 234 235 237 153 152 158 242 240 238 167 181 189 175 195 202 186 219 225 56 121 144 247 242 242 185 178 179 237 234 233 207 208 215 236 236 238 211 200 209 165 100 117 152 48 60 165 56 65 169 64 71 171 69 75 163 64 71 157 58 63 159 63 66 163 67 73 164 68 76 163 65 72 164 65 68 
120 26 35 117 25 32 117 26 33 120 27 34 121 26 35 122 25 34 122 25 33 119 24 33 111 22 31 105 20 30 98 22 33 73 0 13 189 165 167 212 208 207 181 171 174 239 241 242 215 216 218 222 229 233 139 163 180 113 138 158 216 218 220 162 157 164 234 236 238 161 159 164 225 225 226 220 218 224 237 241 244 204 177 188 161 54 67 178 72 80 170 63 74 159 51 62 158 50 61 163 58 65 163 63 67 165 66 69 164 67 73 165 69 77 164 65 71 165 67 69 
121 24 33 120 26 32 120 27 32 121 26 35 122 26 35 123 25 34 123 24 33 121 24 32 118 23 32 111 22 31 109 24 33 83 1 14 183 154 159 244 246 245 223 219 219 193 192 196 208 207 210 235 240 243 177 188 203 155 160 172 225 223 224 179 174 177 244 243 243 226 223 225 216 211 213 183 178 187 237 236 239 209 209 219 175 137 154 168 66 79 179 73 81 176 72 78 167 61 68 158 51 56 153 48 57 158 58 63 166 66 69 169 68 72 169 66 71 168 66 70 
122 25 35 122 27 35 122 27 32 120 27 31 122 26 33 123 26 33 124 25 33 121 24 32 118 24 32 114 22 33 113 24 34 87 0 12 193 164 169 201 197 194 147 137 140 177 176 182 187 184 191 243 243 244 220 224 229 231 234 237 179 170 174 136 123 128 245 244 244 153 140 142 148 135 140 156 147 153 236 235 237 235 234 238 235 242 247 198 160 170 162 59 72 173 70 78 176 72 76 171 66 71 161 58 62 162 61 66 164 64 67 168 67 68 168 65 67 166 63 67 
122 26 37 120 29 34 122 28 33 121 28 34 122 26 34 122 25 35 123 25 36 123 26 34 121 26 33 115 23 32 110 23 31 90 10 21 130 85 88 166 155 151 163 155 159 180 179 186 176 174 183 191 192 202 219 223 230 211 218 225 64 42 57 93 66 75 188 177 179 149 134 139 151 141 145 169 164 169 206 206 213 223 224 233 226 224 231 216 217 227 165 93 106 159 55 62 168 67 71 171 66 69 165 62 65 163 64 66 169 68 71 166 62 67 164 62 64 162 61 66 
121 26 37 120 28 32 122 29 35 122 28 36 122 27 33 122 26 31 121 25 32 123 26 33 120 25 33 113 23 30 106 22 29 89 14 26 107 53 47 149 134 129 165 162 168 174 172 177 182 180 188 192 195 210 184 191 207 180 192 207 104 89 108 67 31 43 136 118 124 143 128 132 164 155 160 173 169 176 177 169 180 196 200 217 205 182 208 201 161 188 164 90 99 154 54 60 158 60 64 165 60 62 165 61 67 163 64 65 169 68 69 169 66 70 164 60 66 159 57 60 
123 27 37 122 29 33 121 28 33 123 28 33 121 27 33 122 26 33 123 25 34 119 24 31 116 24 30 114 23 32 106 19 31 87 8 25 102 42 41 155 142 134 217 218 223 237 236 238 200 200 204 191 193 204 236 238 242 243 250 252 145 134 149 67 29 43 202 192 195 181 167 172 161 151 158 218 216 220 236 234 235 214 214 224 204 147 184 171 78 99 159 57 64 160 60 66 160 57 63 165 60 64 162 60 65 161 61 63 164 62 62 167 67 68 167 65 67 159 60 62 
121 27 35 122 28 33 121 26 32 120 27 34 121 27 32 118 27 32 122 26 33 119 26 31 116 23 28 109 17 26 108 30 26 104 38 21 102 44 26 158 132 120 227 224 223 190 192 197 234 233 234 222 222 223 224 221 229 226 216 226 181 168 176 125 95 107 247 245 245 183 167 175 172 149 161 233 229 232 177 160 170 239 230 237 170 90 113 158 56 64 160 60 67 160 59 65 161 57 62 160 56 61 164 61 64 166 64 65 160 56 59 160 58 62 163 63 66 159 63 66 
123 29 34 120 29 33 120 28 33 119 27 30 119 26 31 119 25 30 119 25 30 116 22 30 113 26 26 131 77 25 149 110 29 160 128 32 151 114 31 110 76 37 103 79 76 225 224 225 219 217 221 224 225 227 182 149 165 167 135 151 200 181 186 54 0 0 187 165 169 193 176 184 155 118 133 231 219 223 202 179 191 238 228 229 157 62 67 160 57 60 162 59 65 161 58 63 164 62 63 161 57 60 161 59 60 169 66 66 165 62 65 157 55 60 158 57 59 158 59 58 
122 30 36 121 29 33 119 28 34 120 27 30 119 25 30 115 23 29 112 21 28 103 15 26 129 71 19 161 127 31 173 139 40 190 161 50 188 158 47 149 125 39 192 193 184 196 176 182 120 81 89 207 191 196 155 111 120 155 113 121 201 172 175 87 0 7 207 182 187 184 133 138 134 39 50 191 133 138 201 149 152 231 210 212 160 57 62 162 56 62 165 62 65 161 59 62 161 59 62 164 62 64 163 63 61 162 59 60 164 65 66 164 64 65 160 61 59 154 58 55 
121 27 34 120 29 32 121 28 31 117 26 33 114 24 30 110 23 27 98 14 29 108 42 19 149 106 13 158 118 23 183 153 46 198 172 54 201 170 42 204 181 91 229 237 242 198 183 187 185 150 156 150 81 91 225 206 210 225 207 210 157 82 89 122 11 22 205 165 167 183 116 120 153 46 52 221 190 190 225 199 200 193 130 134 156 43 51 163 58 63 162 56 59 161 58 60 159 56 57 160 59 61 164 63 62 160 62 60 159 59 60 162 62 61 164 64 62 157 60 60 
120 28 33 120 28 33 121 27 35 117 25 32 110 23 28 99 20 24 83 10 22 118 66 14 150 108 12 161 126 29 189 159 43 201 172 47 209 176 48 98 157 124 33 100 144 118 40 48 130 49 57 130 31 39 146 52 60 147 52 59 137 30 35 144 40 45 147 44 49 153 50 56 156 48 50 163 60 64 171 76 81 153 42 49 158 54 54 159 55 54 158 51 57 159 53 57 162 59 60 160 57 60 160 56 59 159 60 59 158 58 55 159 59 57 161 61 61 157 59 56 
120 28 34 119 28 33 119 27 34 116 25 34 108 22 28 96 19 25 78 10 21 115 62 12 146 110 13 155 120 21 174 149 43 188 165 52 103 152 118 0 148 203 52 96 133 115 23 32 121 36 41 139 41 46 139 33 42 141 35 42 145 42 45 145 40 45 150 43 48 154 47 53 157 52 54 157 49 51 156 46 51 160 52 55 155 50 54 155 51 53 156 52 54 152 50 55 156 53 56 163 61 62 161 57 59 156 55 58 156 55 54 156 56 54 159 60 59 159 61 59 
117 27 32 118 28 32 119 27 31 115 24 33 107 21 28 97 19 24 77 11 21 107 53 10 139 101 10 162 116 10 111 116 56 29 128 147 8 137 184 12 140 192 89 60 79 119 30 37 126 37 45 138 39 43 141 39 42 145 41 43 145 41 45 147 42 48 151 45 47 153 49 49 154 46 52 155 49 53 156 49 51 156 49 50 156 51 52 154 49 52 153 50 52 152 51 55 149 48 51 154 50 54 161 58 58 155 56 56 155 55 52 151 53 50 153 55 53 155 57 55 
118 26 28 117 26 29 117 25 30 112 23 30 105 22 26 99 19 25 85 14 24 90 30 18 100 58 14 88 84 41 56 86 66 10 104 132 11 130 174 63 74 100 113 27 32 120 33 42 133 35 41 136 37 38 140 39 41 144 40 42 145 41 44 147 41 45 149 42 45 151 46 47 151 47 49 153 46 49 151 47 49 154 47 47 155 49 48 152 49 52 151 47 49 153 49 49 154 52 52 150 48 48 151 49 50 156 54 54 152 54 54 153 53 50 153 55 51 154 57 51 
117 25 27 115 25 27 117 24 26 113 22 29 109 21 29 103 20 27 98 20 26 90 17 24 80 18 22 55 36 47 48 46 64 64 46 58 85 48 61 115 29 36 120 32 37 131 35 39 136 37 39 136 37 38 139 38 39 142 38 42 143 38 41 143 39 43 142 40 43 145 41 42 150 45 43 151 46 46 150 46 47 150 45 45 153 47 46 152 46 47 151 45 47 150 45 45 152 48 45 155 53 50 149 48 49 152 51 49 151 53 48 148 49 45 149 50 47 150 53 45 
115 24 26 114 24 25 112 24 25 112 22 27 110 22 28 108 22 27 107 23 28 108 22 30 104 23 27 107 21 26 112 24 26 118 26 32 124 28 34 127 33 37 132 34 37 134 35 35 137 37 36 138 35 39 140 36 38 141 37 41 141 35 40 142 37 41 142 36 41 143 37 38 145 40 42 148 41 44 149 42 41 149 42 41 151 44 45 152 45 43 149 44 45 148 44 42 148 44 43 147 44 44 150 49 47 150 47 45 151 49 45 151 50 46 147 48 45 147 49 46 
